<?xml version="1.0" encoding="UTF-8" standalone="no"?>
<!DOCTYPE svg PUBLIC "-//W3C//DTD SVG 1.1//EN"
 "http://www.w3.org/Graphics/SVG/1.1/DTD/svg11.dtd">
<!-- Generated by graphviz version 2.43.0 (0)
 -->
<!-- Title: %3 Pages: 1 -->
<svg width="287pt" height="332pt"
 viewBox="0.00 0.00 286.89 332.00" xmlns="http://www.w3.org/2000/svg" xmlns:xlink="http://www.w3.org/1999/xlink">
<g id="graph0" class="graph" transform="scale(1 1) rotate(0) translate(4 328)">
<title>%3</title>
<polygon fill="white" stroke="transparent" points="-4,4 -4,-328 282.89,-328 282.89,4 -4,4"/>
<!-- 0 -->
<g id="node1" class="node">
<title>0</title>
<ellipse fill="none" stroke="black" cx="138.94" cy="-90" rx="27" ry="18"/>
<text text-anchor="middle" x="138.94" y="-86.3" font-family="Times,serif" font-size="14.00">+</text>
</g>
<!-- 4 -->
<g id="node7" class="node">
<title>4</title>
<ellipse fill="none" stroke="black" cx="138.94" cy="-18" rx="62.29" ry="18"/>
<text text-anchor="middle" x="138.94" y="-14.3" font-family="Times,serif" font-size="14.00">output cols</text>
</g>
<!-- 0&#45;&gt;4 -->
<g id="edge6" class="edge">
<title>0&#45;&gt;4</title>
<path fill="none" stroke="black" d="M138.94,-71.7C138.94,-63.98 138.94,-54.71 138.94,-46.11"/>
<polygon fill="black" stroke="black" points="142.44,-46.1 138.94,-36.1 135.44,-46.1 142.44,-46.1"/>
</g>
<!-- 3 -->
<g id="node2" class="node">
<title>3</title>
<ellipse fill="none" stroke="black" cx="66.94" cy="-162" rx="59.59" ry="18"/>
<text text-anchor="middle" x="66.94" y="-158.3" font-family="Times,serif" font-size="14.00">Categorify</text>
</g>
<!-- 3&#45;&gt;0 -->
<g id="edge1" class="edge">
<title>3&#45;&gt;0</title>
<path fill="none" stroke="black" d="M84.01,-144.41C93.78,-134.91 106.15,-122.88 116.68,-112.65"/>
<polygon fill="black" stroke="black" points="119.23,-115.05 123.96,-105.57 114.35,-110.03 119.23,-115.05"/>
</g>
<!-- 2 -->
<g id="node3" class="node">
<title>2</title>
<ellipse fill="none" stroke="black" cx="211.94" cy="-162" rx="66.89" ry="18"/>
<text text-anchor="middle" x="211.94" y="-158.3" font-family="Times,serif" font-size="14.00">SelectionOp</text>
</g>
<!-- 2&#45;&gt;0 -->
<g id="edge2" class="edge">
<title>2&#45;&gt;0</title>
<path fill="none" stroke="black" d="M194.64,-144.41C184.6,-134.78 171.85,-122.55 161.08,-112.23"/>
<polygon fill="black" stroke="black" points="163.3,-109.5 153.66,-105.11 158.45,-114.56 163.3,-109.5"/>
</g>
<!-- 1 -->
<g id="node4" class="node">
<title>1</title>
<ellipse fill="none" stroke="black" cx="66.94" cy="-234" rx="66.89" ry="18"/>
<text text-anchor="middle" x="66.94" y="-230.3" font-family="Times,serif" font-size="14.00">SelectionOp</text>
</g>
<!-- 1&#45;&gt;3 -->
<g id="edge5" class="edge">
<title>1&#45;&gt;3</title>
<path fill="none" stroke="black" d="M66.94,-215.7C66.94,-207.98 66.94,-198.71 66.94,-190.11"/>
<polygon fill="black" stroke="black" points="70.44,-190.1 66.94,-180.1 63.44,-190.1 70.44,-190.1"/>
</g>
<!-- 1_selector -->
<g id="node5" class="node">
<title>1_selector</title>
<ellipse fill="none" stroke="black" cx="66.94" cy="-306" rx="43.59" ry="18"/>
<text text-anchor="middle" x="66.94" y="-302.3" font-family="Times,serif" font-size="14.00">[&#39;item&#39;]</text>
</g>
<!-- 1_selector&#45;&gt;1 -->
<g id="edge3" class="edge">
<title>1_selector&#45;&gt;1</title>
<path fill="none" stroke="black" d="M66.94,-287.7C66.94,-279.98 66.94,-270.71 66.94,-262.11"/>
<polygon fill="black" stroke="black" points="70.44,-262.1 66.94,-252.1 63.44,-262.1 70.44,-262.1"/>
</g>
<!-- 2_selector -->
<g id="node6" class="node">
<title>2_selector</title>
<ellipse fill="none" stroke="black" cx="211.94" cy="-234" rx="46.29" ry="18"/>
<text text-anchor="middle" x="211.94" y="-230.3" font-family="Times,serif" font-size="14.00">[&#39;price&#39;]</text>
</g>
<!-- 2_selector&#45;&gt;2 -->
<g id="edge4" class="edge">
<title>2_selector&#45;&gt;2</title>
<path fill="none" stroke="black" d="M211.94,-215.7C211.94,-207.98 211.94,-198.71 211.94,-190.11"/>
<polygon fill="black" stroke="black" points="215.44,-190.1 211.94,-180.1 208.44,-190.1 215.44,-190.1"/>
</g>
</g>
</svg>
